<svg className="IBM-logo" width="642" height="257" viewBox="0 0 642 257" fill="none" xmlns="http://www.w3.org/2000/svg">
<path d="M0.409546 0.267273V17.8123H125.205V0.267273H0.409546ZM142.898 0.267273V17.8123H320.754C320.754 17.8123 302.587 0.267273 278.528 0.267273H142.898ZM355.64 0.267273V17.8123H463.226L456.843 0.267273H355.64ZM540.379 0.267273L533.996 17.8123H640.624V0.267273H540.379ZM0.409546 34.3918V51.9368H125.205V34.3918H0.409546ZM142.898 34.4163V51.9286H341.376C341.376 51.9286 339.06 38.4262 335.018 34.4163H142.898ZM355.64 34.4163V51.9286H475.116L469.208 34.4163H355.64ZM527.604 34.4163L521.696 51.9286H640.616V34.4163H527.604ZM36.2771 68.5163V86.0859H90.328V68.5163H36.2771ZM178.765 68.5163V86.0859H232.816V68.5163H178.765ZM285.394 68.5163V86.0859H339.445C339.445 86.0859 342.882 76.806 342.882 68.5163H285.394ZM391.516 68.5163V86.0859H487.261L480.878 68.5163H391.516ZM515.845 68.5163L509.429 86.0859H605.731V68.5163H515.845ZM36.2853 102.665V120.21H90.3362V102.665H36.2853ZM178.773 102.665V120.21H316.826C316.826 120.21 328.365 111.209 332.047 102.665H178.773ZM391.516 102.665V120.21H445.566V110.439L449.003 120.21H548.022L551.704 110.439V120.21H605.755V102.665H504.282L498.897 117.526L493.496 102.665H391.516ZM36.2771 136.79V154.335H90.328V136.79H36.2771ZM178.765 136.79V154.335H332.039C328.357 145.824 316.818 136.79 316.818 136.79H178.765ZM391.507 136.79V154.335H445.558V136.79H391.507ZM455.378 136.79L461.925 154.335H536.164L542.384 136.79H455.378ZM551.68 136.79V154.335H605.731V136.79H551.68ZM36.2935 170.914V188.459H90.3444V170.914H36.2935ZM178.782 170.914V188.459H232.833V170.914H178.782ZM285.41 170.914V188.459H342.89C342.89 180.178 339.453 170.914 339.453 170.914H285.41ZM391.532 170.914V188.459H445.583V170.914H391.532ZM467.67 170.914L474.004 188.459H523.758L530.141 170.914H467.67ZM551.696 170.914V188.459H605.747V170.914H551.696ZM1.40791 205.039V222.608H126.204V205.039H1.40791ZM142.922 205.039V222.608H335.051C339.093 218.582 341.409 205.039 341.409 205.039H142.922ZM356.638 205.039V222.608H445.55V205.039H356.638ZM479.961 205.039L486.475 222.608H511.794L517.907 205.039H479.961ZM551.696 205.039V222.608H641.615V205.039H551.696ZM1.40791 239.188V256.733H126.204V239.188H1.40791ZM142.922 239.188V256.7H278.528C302.587 256.7 320.754 239.188 320.754 239.188H142.922ZM356.638 239.188V256.733H445.55V239.188H356.638ZM492.318 239.188L498.578 256.684L499.658 256.708L506.017 239.196L492.318 239.188ZM551.704 239.188V256.733H641.623V239.188H551.704Z" fill="black"/>
</svg>
