<svg width="420" height="128" viewBox="0 0 420 128" fill="none" xmlns="http://www.w3.org/2000/svg">
<path fill-rule="evenodd" clip-rule="evenodd" d="M274.256 0.378738C287.412 0.378738 297.945 3.05658 304.667 5.55496L300.067 32.272L297.027 30.8504C290.765 28.3521 282.728 25.9576 271.633 26.1276C258.348 26.1276 252.201 31.6061 252.201 36.7304C252.124 42.504 259.388 46.3106 271.249 52.0134C290.822 60.8097 299.864 71.4833 299.735 85.5054C299.471 111.094 276.319 127.621 240.65 127.621C225.436 127.468 210.78 124.485 202.854 121.045L207.616 93.4492L211.989 95.4092C223.132 100.012 230.346 101.879 243.926 101.879C253.679 101.879 264.143 98.1035 264.226 89.841C264.291 84.4451 259.848 80.5913 246.642 74.5508C233.773 68.6543 216.723 58.7718 216.911 41.0588C217.111 17.0976 240.731 0.378738 274.256 0.378738ZM168.898 2.51991L147.682 125.793H181.598L202.828 2.51991H168.898ZM85.9953 86.6739L82.4566 69.5891C82.4391 69.5333 82.4214 69.4774 82.4037 69.4215C82.4271 69.4805 82.4505 69.5396 82.4738 69.5987L70.577 12.9508C68.5215 5.14398 62.5648 2.81563 55.1963 2.54407H0.483986L0.0499878 5.10856C13.3512 8.29694 25.2462 12.8966 35.6717 18.6183L65.8384 125.687L101.738 125.647L155.156 2.61006H119.215L85.9953 86.6739Z" fill="black"/>
<path fill-rule="evenodd" clip-rule="evenodd" d="M392.486 2.74051H366.268C358.146 2.74051 352.067 4.93426 348.5 12.9631L298.108 125.935H333.739C333.739 125.935 339.565 110.744 340.883 107.41C344.777 107.41 379.388 107.462 384.336 107.462C385.352 111.776 388.466 125.935 388.466 125.935H419.95L392.486 2.74051M350.666 82.1957C353.471 75.0926 364.185 47.7355 364.185 47.7355C363.982 48.0637 366.97 40.5993 368.682 35.9709L370.976 46.5996C370.976 46.5996 377.474 76.0253 378.831 82.1957H350.666" fill="black"/>
</svg>
